# xmcd
#
# Track frame offsets: 
#        150
#        15230
#        29985
#        52787
#        73415
#        87227
#        101875
#        115987
#        135147
#        153225
#        171735
#        185067
#        208992
#        251097
#
# Disc length: 3544 seconds
#
# Revision: 2
# Processed by: cddbd v1.5.2PL0 Copyright (c) Steve Scherf et al.
# Submitted via: ExactAudioCopy v0.95b3
#
DISCID=cd0dd60e
DTITLE=Joel Johnson Band - Turnin' Heads
DYEAR=1995
DGENRE=Blues
TTITLE0=Evil (As The Howlin' Wolf)
TTITLE1=Turnin' Heads
TTITLE2=Woriedf About My Blues
TTITLE3=Legs
TTITLE4=Cash And Pawn
TTITLE5=High Ambition
TTITLE6=Off The Walt
TTITLE7=Blues On The Bank
TTITLE8=Natha Lee
TTITLE9=Makes Sense In The Morning
TTITLE10=My Girlfriend's Kinda Vacant
TTITLE11=Plumber Blues
TTITLE12=Mind To Wander
TTITLE13=Goin' To The John
EXTD=
EXTT0=
EXTT1=
EXTT2=
EXTT3=
EXTT4=
EXTT5=
EXTT6=Based on Off the Wall by Little Walter \nJacobs\n
EXTT7=
EXTT8=
EXTT9=
EXTT10=
EXTT11=
EXTT12=
EXTT13=
PLAYORDER=
